Coordinates
version=1
nRows=8
nColumns=40
inDegrees=yes

Units are S.I. units (second, meters, Newtons, ...)
Angles are in degrees.

endheader
time	pelvis_tilt	pelvis_list	pelvis_rotation	pelvis_tx	pelvis_ty	pelvis_tz	hip_flexion_r	hip_adduction_r	hip_rotation_r	knee_angle_r	knee_angle_r_beta	ankle_angle_r	subtalar_angle_r	mtp_angle_r	hip_flexion_l	hip_adduction_l	hip_rotation_l	knee_angle_l	knee_angle_l_beta	ankle_angle_l	subtalar_angle_l	mtp_angle_l	lumbar_extension	lumbar_bending	lumbar_rotation	arm_flex_r	arm_add_r	arm_rot_r	elbow_flex_r	pro_sup_r	wrist_flex_r	wrist_dev_r	arm_flex_l	arm_add_l	arm_rot_l	elbow_flex_l	pro_sup_l	wrist_flex_l	wrist_dev_l
     18.78000000	     -4.65131762	     -5.53345036	     -4.56948222	      0.81633368	      0.91878569	      0.51718792	     22.36074890	      2.99774503	    -10.83570136	     22.87590775	     22.87590775	      6.65017690	     -4.07080891	     -3.99385508	     11.74409402	    -11.26793391	     -4.51402893	     45.20438191	     45.20438191	     14.62080599	    -18.16587116	     -0.97076576	     -9.75045798	      8.64627504	      0.88835262	      5.45901815	    -11.41159096	     -7.70920109	     34.79674235	     46.09021288	      0.00000000	      0.00000000	     14.90441081	    -11.71949586	     -9.06890228	     54.35977339	     46.72366259	      0.00000000	      0.00000000
     18.79285714	     -4.45550808	     -5.68193885	     -4.18353805	      0.81654063	      0.91954537	      0.51953001	     21.59507294	      3.17302383	    -11.22454282	     22.77160150	     22.77160150	      7.09657601	     -3.95208753	     -4.13801923	     13.39553646	    -11.80828044	     -3.82988184	     48.73512119	     48.73512119	     12.99296497	    -18.47696180	     -0.64071026	     -9.84798670	      8.78926087	      0.88526373	      7.19755910	    -11.52493723	     -7.70706056	     35.81308988	     46.06064452	      0.00000000	      0.00000000	     13.80347979	    -11.12582520	     -8.70143195	     53.17234434	     46.67088437	      0.00000000	      0.00000000
     18.80571429	     -4.38269220	     -5.64859932	     -3.80339404	      0.81646735	      0.92023407	      0.52155973	     20.95927245	      3.12054433	    -11.71043811	     22.61129678	     22.61129678	      7.48048642	     -3.52638944	     -4.42388608	     15.31443273	    -11.93203786	     -2.87540451	     52.30075379	     52.30075379	     12.78516810	    -18.45529841	      3.64933198	     -9.73724291	      8.79311632	      1.26465991	      8.11783647	    -12.03565688	     -6.69411342	     38.53398481	     45.88881025	      0.00000000	      0.00000000	     13.96303653	    -10.39803758	     -7.64626744	     48.67894219	     46.55653650	      0.00000000	      0.00000000
     18.81857143	     -4.29055191	     -5.66340950	     -3.45794544	      0.81622230	      0.92092258	      0.52363990	     20.30114585	      3.14765776	    -12.16730816	     22.43473915	     22.43473915	      7.82838586	     -3.14263606	     -4.61872015	     17.06979277	    -12.14981103	     -2.12330456	     55.32549327	     55.32549327	     11.95753597	    -18.52093347	      5.97989291	     -9.74188471	      8.78239414	      1.46388747	      9.53542368	    -12.42240906	     -6.12096907	     40.58747528	     45.78191940	      0.00000000	      0.00000000	     13.37140431	     -9.78908658	     -6.96820603	     46.05917613	     46.47983523	      0.00000000	      0.00000000
     18.83142857	     -4.22292275	     -5.69770234	     -3.12379490	      0.81578037	      0.92157491	      0.52569116	     19.65514735	      3.23403415	    -12.51800856	     22.19904206	     22.19904206	      8.11694832	     -2.91656953	     -4.68874685	     18.73083016	    -12.43133165	     -1.53368250	     57.82001100	     57.82001100	     10.78834394	    -18.57140062	      6.72611192	     -9.75318398	      8.75670135	      1.32536923	     11.43308360	    -12.50808206	     -6.03484337	     42.03234096	     45.73318304	      0.00000000	      0.00000000	     12.19517854	     -9.38822239	     -6.62550444	     44.40812977	     46.42354582	      0.00000000	      0.00000000
     18.84428571	     -4.14105317	     -5.65407588	     -2.82275476	      0.81514112	      0.92227725	      0.52756752	     19.05103377	      3.21082906	    -12.90531392	     22.05156626	     22.05156626	      8.45079934	     -2.52975447	     -4.72662560	     20.35151513	    -12.52800217	     -0.94156756	     59.98694846	     59.98694846	     10.60325764	    -18.48775191	      9.43072782	     -9.81515116	      8.65047574	      1.88367361	     12.55123978	    -13.23487687	     -5.10246009	     44.67581894	     45.59307242	      0.00000000	      0.00000000	     12.08973386	     -8.65761316	     -5.93094490	     40.87512407	     46.34020960	      0.00000000	      0.00000000
     18.85714286	     -4.10593774	     -5.63298653	     -2.50514932	      0.81434099	      0.92293836	      0.52942959	     18.46387530	      3.25455516	    -13.20014660	     21.80525462	     21.80525462	      8.69034876	     -2.35258300	     -4.71994986	     21.85497998	    -12.71740895	     -0.51730125	     61.47245755	     61.47245755	      9.87433833	    -18.48621622	      9.74136605	     -9.86785454	      8.51928364	      1.78334681	     14.50862276	    -13.31749361	     -5.10453507	     46.14443164	     45.55055322	      0.00000000	      0.00000000	     10.82151146	     -8.32835315	     -5.67040165	     39.48549596	     46.28974815	      0.00000000	      0.00000000
     18.87000000	     -4.04394625	     -5.52086520	     -2.20853271	      0.81338183	      0.92367342	      0.53111505	     17.90209239	      3.17122416	    -13.51461420	     21.64978468	     21.64978468	      9.04512470	     -1.98672750	     -4.58825587	     23.24762651	    -12.75647094	     -0.17562156	     62.48279680	     62.48279680	      9.75915247	    -18.45360875	     10.98106311	     -9.95556181	      8.30399105	      2.14825274	     15.83188185	    -13.98497675	     -4.28620291	     48.87355145	     45.42492134	      0.00000000	      0.00000000	     10.45861287	     -7.79037564	     -5.09257551	     36.34244612	     46.21244491	      0.00000000	      0.00000000
